# xmcd CD database file
#
# Track frame offsets:
#	150
#	36971
#	69038
#	102515
#	134356
#	162886
#	200138
#	239215
#	282657
#
# Disc length: 4176 seconds
#
# Revision: 0
# Processed by: cddbd v1.4PL0 Copyright (c) Steve Scherf et al.
# Submitted via: CDex 1.50Beta7
#
DISCID=8c104e09
DTITLE=Sandviken Bigband - 30 Years In Business
DYEAR=1900
DGENRE=Jazz
TTITLE0=Joy Spring
TTITLE1=Whipper Snapper
TTITLE2=Second Line
TTITLE3=Alices Fax
TTITLE4=Mean to Me
TTITLE5=I'll Be Around
TTITLE6=Daahoud
TTITLE7=In a Sentimental Mood
TTITLE8=Blues for Ann-Marie
EXTD=
EXTT0=
EXTT1=
EXTT2=
EXTT3=
EXTT4=
EXTT5=
EXTT6=
EXTT7=
EXTT8=
PLAYORDER=
